<svg width="216" height="216" viewBox="0 0 216 216" fill="none" xmlns="http://www.w3.org/2000/svg">
<g clip-path="url(#clip0_8847_3689)">
<path d="M216 0H0V216H216V0Z" fill="#9196A1"/>
<path fill-rule="evenodd" clip-rule="evenodd" d="M107.937 52.5398C92.2194 52.5398 79.4773 65.2819 79.4773 81C79.4773 96.7181 92.2194 109.46 107.937 109.46C123.656 109.46 136.398 96.7181 136.398 81C136.398 65.2819 123.656 52.5398 107.937 52.5398ZM68.8977 81C68.8977 59.4389 86.3764 41.9602 107.937 41.9602C129.499 41.9602 146.977 59.4389 146.977 81C146.977 102.561 129.499 120.04 107.937 120.04C86.3764 120.04 68.8977 102.561 68.8977 81ZM64.7863 147.389C78.0272 139.526 93.5097 134.773 107.937 134.773C122.152 134.773 137.388 139.387 150.493 147.038C163.583 154.681 175 165.623 181.107 178.703C181.191 178.883 181.277 179.067 181.366 179.256C184.172 185.248 189.165 195.911 189.165 212.625V215.915H178.585V212.625C178.585 198.267 174.4 189.327 171.771 183.712C171.686 183.531 171.603 183.353 171.521 183.179C166.553 172.537 156.919 163.04 145.158 156.174C133.412 149.316 119.997 145.352 107.937 145.352C95.6933 145.352 82.0556 149.438 70.188 156.486C58.3042 163.542 48.6719 173.279 43.9181 184.142C41.6333 189.363 37.2898 200.661 37.2898 212.625V215.915H26.7102V212.625C26.7102 198.433 31.7724 185.508 34.2259 179.901C40.0971 166.485 51.5615 155.242 64.7863 147.389Z" fill="#FCFCFD"/>
</g>
<defs>
<clipPath id="clip0_8847_3689">
<rect width="216" height="216" fill="white"/>
</clipPath>
</defs>
</svg>
